<svg width="20" height="22" viewBox="0 0 13 15" fill="none" xmlns="http://www.w3.org/2000/svg">
<path d="M12.9088 11.1183C12.1583 11.1183 12.0715 10.2277 10.9133 10.2277C9.74997 10.2277 9.65904 11.1183 8.91105 11.1183C8.16922 11.1183 8.06853 10.2277 6.90881 10.2277C5.76126 10.2277 5.64405 11.1183 4.91328 11.1183C4.15931 11.1183 4.07751 10.2277 2.91105 10.2277C1.74461 10.2277 1.66141 11.1183 0.908813 11.1183V8.89172C0.908813 8.15417 1.48471 7.55579 2.19453 7.55579H2.6231V3.54797H4.33738V7.55579H6.05167V3.54797H7.76596V7.55579H9.48024V3.54797H11.1945V7.55579H11.6231C12.3329 7.55579 12.9088 8.15417 12.9088 8.89172V11.1183ZM12.9088 14.6808H0.908813V12.0089C2.07013 12.0089 2.1615 11.1183 2.91105 11.1183C3.65973 11.1183 3.74818 12.0089 4.91328 12.0089C6.06086 12.0089 6.17802 11.1183 6.90881 11.1183C7.66278 11.1183 7.74455 12.0089 8.91105 12.0089C10.0724 12.0089 10.1637 11.1183 10.9133 11.1183C11.6496 11.1183 11.7504 12.0089 12.9088 12.0089V14.6808ZM3.48024 3.10266C3.0048 3.10266 2.6231 2.70605 2.6231 2.21204C2.6231 1.34924 3.48024 1.5719 3.48024 0.430786C3.80167 0.430786 4.33738 1.25183 4.33738 1.98938C4.33738 2.72693 3.95569 3.10266 3.48024 3.10266ZM6.90881 3.10266C6.43337 3.10266 6.05167 2.70605 6.05167 2.21204C6.05167 1.34924 6.90881 1.5719 6.90881 0.430786C7.23024 0.430786 7.76596 1.25183 7.76596 1.98938C7.76596 2.72693 7.38426 3.10266 6.90881 3.10266ZM10.3374 3.10266C9.86194 3.10266 9.48024 2.70605 9.48024 2.21204C9.48024 1.34924 10.3374 1.5719 10.3374 0.430786C10.6588 0.430786 11.1945 1.25183 11.1945 1.98938C11.1945 2.72693 10.8128 3.10266 10.3374 3.10266Z" fill="black"/>
</svg>
