<svg width="20" height="23" viewBox="0 0 13 16" fill="none" xmlns="http://www.w3.org/2000/svg">
<path d="M11.9088 3.9538H8.90881V1.00067C8.90881 0.457112 8.461 0.0162964 7.90881 0.0162964H5.90881C5.35663 0.0162964 4.90881 0.457112 4.90881 1.00067V3.9538H1.90881C1.35663 3.9538 0.908813 4.39461 0.908813 4.93817V6.90692C0.908813 7.45048 1.35663 7.8913 1.90881 7.8913H4.90881V14.7819C4.90881 15.3255 5.35663 15.7663 5.90881 15.7663H7.90881C8.461 15.7663 8.90881 15.3255 8.90881 14.7819V7.8913H11.9088C12.461 7.8913 12.9088 7.45048 12.9088 6.90692V4.93817C12.9088 4.39461 12.461 3.9538 11.9088 3.9538Z" fill="black"/>
</svg>
